<?xml version="1.0" ?><!DOCTYPE svg  PUBLIC '-//W3C//DTD SVG 1.1//EN'  'http://www.w3.org/Graphics/SVG/1.1/DTD/svg11.dtd'>
<svg enable-background="new 0 0 128 128" id="Слой_1" version="1.1" viewBox="0 0 128 128" xml:space="preserve" xmlns="http://www.w3.org/2000/svg"><g><g><path d="M40.2,124H36c-1.1,0-2-0.9-2-2V84h20l-3.9,31.2C49.5,120.2,45.2,124,40.2,124z" fill="#000060" fill-opacity="0.1"/></g><g opacity="0.25"><polygon fill="#000060" points="34,94 52.8,94 54,84 34,84   "/></g><g><path d="M109,114L109,114c-2.8,0-5-2.2-5-5V9c0-2.8,2.2-5,5-5h0c2.8,0,5,2.2,5,5v100C114,111.8,111.8,114,109,114z    " fill="#000060" fill-opacity="0.1"/></g><g opacity="0.15"><g><path d="M109,4c-2.8,0-5,2.2-5,5v10c0-2.8,2.2-5,5-5s5,2.2,5,5V9C114,6.2,111.8,4,109,4z" fill="#000060"/></g></g><g><path d="M104,104L104,104c-6-15.1-20.7-25-36.9-25H64V39h3.1C83.3,39,98,29.1,104,14l0,0" fill="#000060" fill-opacity="0.1"/></g><g opacity="0.15"><g><path d="M67.1,39H64v10h3.1C83.3,49,98,39.1,104,24v0V14C98,29.1,83.3,39,67.1,39z" fill="#000060"/></g></g><g><path d="M59,84H29c-2.8,0-5-2.2-5-5V39c0-2.8,2.2-5,5-5h30c2.8,0,5,2.2,5,5v40C64,81.8,61.8,84,59,84z" fill="#000060" fill-opacity="0.3"/></g><g opacity="0.15"><g><path d="M59,34H29c-2.8,0-5,2.2-5,5v10c0-2.8,2.2-5,5-5h30c2.8,0,5,2.2,5,5V39C64,36.2,61.8,34,59,34z" fill="#000060"/></g></g><g><path d="M24,79H14C8.5,79,4,74.5,4,69V49c0-5.5,4.5-10,10-10h10" fill="#000060" fill-opacity="0.1"/></g><g opacity="0.15"><g><path d="M14,39C8.5,39,4,43.5,4,49v10c0-5.5,4.5-10,10-10h10V39H14z" fill="#000060"/></g></g><g><path d="M59,85.5H29c-3.6,0-6.5-2.9-6.5-6.5V39c0-3.6,2.9-6.5,6.5-6.5h30c3.6,0,6.5,2.9,6.5,6.5v40    C65.5,82.6,62.6,85.5,59,85.5z M29,35.5c-1.9,0-3.5,1.6-3.5,3.5v40c0,1.9,1.6,3.5,3.5,3.5h30c1.9,0,3.5-1.6,3.5-3.5V39    c0-1.9-1.6-3.5-3.5-3.5H29z" fill="#000060"/></g><g><path d="M24,80.5H14C7.7,80.5,2.5,75.3,2.5,69V49c0-6.3,5.2-11.5,11.5-11.5h10c0.8,0,1.5,0.7,1.5,1.5    s-0.7,1.5-1.5,1.5H14c-4.7,0-8.5,3.8-8.5,8.5v20c0,4.7,3.8,8.5,8.5,8.5h10c0.8,0,1.5,0.7,1.5,1.5S24.8,80.5,24,80.5z" fill="#000060"/></g><g><path d="M14,55.5H4c-0.8,0-1.5-0.7-1.5-1.5s0.7-1.5,1.5-1.5h10c0.8,0,1.5,0.7,1.5,1.5S14.8,55.5,14,55.5z" fill="#000060"/></g><g><path d="M14,60.5H4c-0.8,0-1.5-0.7-1.5-1.5s0.7-1.5,1.5-1.5h10c0.8,0,1.5,0.7,1.5,1.5S14.8,60.5,14,60.5z" fill="#000060"/></g><g><path d="M14,50.5H4c-0.8,0-1.5-0.7-1.5-1.5s0.7-1.5,1.5-1.5h10c0.8,0,1.5,0.7,1.5,1.5S14.8,50.5,14,50.5z" fill="#000060"/></g><g><path d="M67.1,40.5H64c-0.8,0-1.5-0.7-1.5-1.5s0.7-1.5,1.5-1.5h3.1c15.7,0,29.7-9.4,35.5-24.1    c0.3-0.8,1.2-1.1,1.9-0.8c0.8,0.3,1.1,1.2,0.8,1.9C99.1,30.3,84.1,40.5,67.1,40.5z" fill="#000060"/></g><g><path d="M104,105.5c-0.6,0-1.2-0.4-1.4-0.9c-5.8-14.6-19.8-24.1-35.5-24.1H64c-0.8,0-1.5-0.7-1.5-1.5    s0.7-1.5,1.5-1.5h3.1c17,0,32,10.2,38.3,25.9c0.3,0.8-0.1,1.6-0.8,1.9C104.4,105.5,104.2,105.5,104,105.5z" fill="#000060"/></g><g><path d="M109,115.5c-3.6,0-6.5-2.9-6.5-6.5V9c0-3.6,2.9-6.5,6.5-6.5s6.5,2.9,6.5,6.5v100    C115.5,112.6,112.6,115.5,109,115.5z M109,5.5c-1.9,0-3.5,1.6-3.5,3.5v100c0,1.9,1.6,3.5,3.5,3.5s3.5-1.6,3.5-3.5V9    C112.5,7.1,110.9,5.5,109,5.5z" fill="#000060"/></g><g><path d="M40.2,125.5H36c-1.9,0-3.5-1.6-3.5-3.5V84c0-0.8,0.7-1.5,1.5-1.5s1.5,0.7,1.5,1.5v38    c0,0.3,0.2,0.5,0.5,0.5h4.2c4.3,0,7.9-3.2,8.4-7.4l3.9-31.2c0.1-0.8,0.9-1.4,1.7-1.3c0.8,0.1,1.4,0.9,1.3,1.7l-3.9,31.2    C50.9,121.2,46,125.5,40.2,125.5z" fill="#000060"/></g></g></svg>